PathFileType	4	(X/Y/Z)	Run_200 02
DataRate	CameraRate	NumFrames	NumMarkers	Units	OrigDataRate	OrigDataStartFrame	OrigNumFrames
120	120	4	41	mm	120	1	125
Frame#	Time	LASI			RASI			LPSI			RPSI			RTH1			RTH3			LTH1			LTH2			LTH3			RTB1			RTB2			RTB3			LTB1			LTB2			LTB3			RCAL			RTOE			RMT5			LCAL			LTOE			LMT5			LACR			RACR			CLAV			C7			RUA1			RUA2			RUA3			RLEL			RMEL			LUA1			LUA2			LUA3			LLEL			LMEL			RFAsuperior			RFAradius			RFAulna			LFAsuperior			LFAradius			LFAulna			
		X1	Y1	Z1	X2	Y2	Z2	X3	Y3	Z3	X4	Y4	Z4	X5	Y5	Z5	X6	Y6	Z6	X7	Y7	Z7	X8	Y8	Z8	X9	Y9	Z9	X10	Y10	Z10	X11	Y11	Z11	X12	Y12	Z12	X13	Y13	Z13	X14	Y14	Z14	X15	Y15	Z15	X16	Y16	Z16	X17	Y17	Z17	X18	Y18	Z18	X19	Y19	Z19	X20	Y20	Z20	X21	Y21	Z21	X22	Y22	Z22	X23	Y23	Z23	X24	Y24	Z24	X25	Y25	Z25	X26	Y26	Z26	X27	Y27	Z27	X28	Y28	Z28	X29	Y29	Z29	X30	Y30	Z30	X31	Y31	Z31	X32	Y32	Z32	X33	Y33	Z33	X34	Y34	Z34	X35	Y35	Z35	X36	Y36	Z36	X37	Y37	Z37	X38	Y38	Z38	X39	Y39	Z39	X40	Y40	Z40	X41	Y41	Z41	

1	0.775	905.765074	1056.013292	-388.757216	898.295939	1046.85747	-159.20377	747.629817	1098.454071	-326.765412	736.659838	1091.547216	-229.571267	854.60238	880.38575	-99.635367	918.0208280000001	630.224351	-161.21106	821.687913	869.1296630000001	-449.386864	841.70417	751.315801	-422.812344	740.53485	658.955884	-412.365861	1005.481579	414.949786	-237.827449	976.251604	351.990853	-172.598987	1000.110385	293.366314	-243.388264	665.176375	439.443919	-339.266429	577.312332	419.412395	-405.504498	538.159462	325.36487	-338.036197	916.8217	104.509944	-249.421615	1120.337689	153.56941	-278.846975	1109.064975	122.077988	-187.365959	389.06275	314.473747	-331.827916	466.034735	125.798117	-293.337396	428.908686	116.086555	-375.897062	922.844838	1516.008886	-448.221692	820.394093	1522.41967	-81.604356	929.8847500000001	1504.704673	-225.345162	820.4972770000001	1563.979737	-288.135738	707.637151	1436.538039	-46.371488	655.695378	1456.644984	-97.595682	632.751936	1390.315143	-33.587515	570.85351	1345.025156	-30.877313	560.5490579999999	1331.331736	-112.711105	879.659396	1391.33579	-523.530588	812.6365489999999	1350.245111	-540.111271	880.654348	1305.831972	-551.26501	838.547974	1231.025873	-577.4413939999999	770.90978	1230.564782	-518.179363	637.5029510000001	1236.41542	-22.754366	705.500539	1139.582155	-63.923059	648.164947	1109.326014	-37.401317	936.870963	1201.198834	-497.595609	984.665286	1225.729937	-382.459943	1007.082387	1167.087376	-413.424751	
2	0.7833329999999999	905.946097	1051.461143	-388.698164	897.872146	1042.403946	-158.741158	747.422057	1092.640565	-326.652756	736.371664	1086.10484	-229.393802	854.119052	875.694948	-99.54128799999999	918.900113	626.1016499999999	-162.239418	826.148757	862.294942	-448.529821	847.678308	745.5556800000001	-421.924674	748.1932	651.639139	-413.625697	1003.426603	409.578089	-238.762787	973.066004	346.825423	-173.944144	995.862027	288.122959	-244.740636	670.452974	434.06056	-341.151715	580.4222559999999	419.172252	-406.778041	538.114591	326.278417	-339.66591	909.42355	101.276272	-251.059393	1113.175176	147.374866	-281.742017	1102.297798	115.058503	-190.422436	386.71921	320.620153	-331.771457	461.460042	130.242187	-297.815741	423.268872	122.673792	-380.003471	922.7092689999999	1510.787705	-447.785284	821.796529	1516.81655	-80.11519	930.459118	1499.32774	-224.750106	820.871525	1559.218898	-286.997271	709.336092	1429.66136	-44.960324	657.004336	1449.966435	-95.610981	634.831667	1382.765111	-32.384758	573.1278620000001	1337.388424	-29.517771	562.740382	1323.913229	-111.376337	878.271305	1386.068449	-522.490551	810.640729	1345.582588	-538.482795	878.053029	1300.215684	-549.444104	835.136365	1226.025867	-575.4623810000001	768.216876	1226.272397	-515.8307589999999	640.5667110000001	1229.313615	-21.747575	709.39429	1133.214198	-63.082151	652.265907	1102.178166	-36.873945	933.869522	1194.761175	-496.696641	982.997883	1218.211916	-381.802052	1004.405003	1159.536818	-413.383261	
3	0.791667	906.016612	1046.014626	-388.633609	897.44683	1037.340803	-158.220885	747.217388	1086.035721	-326.565511	735.997795	1080.035866	-229.292243	853.7826710000001	870.518614	-99.996883	919.803183	621.117129	-162.883744	830.40652	855.214081	-447.99352	853.621638	739.195166	-421.686879	755.880402	643.711714	-414.894188	1000.780239	403.283706	-239.267034	968.717452	341.011827	-174.909924	990.647202	282.116767	-245.621148	676.400089	428.0615	-343.189325	584.320456	418.744245	-408.099172	538.965592	326.874998	-341.486038	900.373412	98.98629200000001	-252.305862	1104.409111	138.709681	-285.020304	1093.887818	106.075995	-193.757855	385.218616	326.678827	-331.831982	458.187827	134.833231	-302.597736	419.015428	129.417226	-384.386524	922.330705	1504.919515	-447.397698	823.305151	1510.444549	-78.662694	930.963316	1493.257064	-224.282619	821.150936	1553.749477	-285.898765	711.2864970000001	1421.839487	-43.430495	658.440569	1442.385274	-93.31324499999999	637.208787	1374.139238	-31.053616	575.753724	1328.727556	-27.839778	565.1887410000001	1315.462205	-109.768506	876.730697	1380.074351	-521.368459	808.481146	1340.293792	-536.826516	875.194498	1293.856351	-547.253012	831.384131	1220.391424	-573.312665	765.462051	1221.296041	-513.357825	644.009785	1221.212768	-20.551769	713.64008	1125.865125	-62.219531	656.772214	1094.077246	-36.2721	930.5983230000001	1187.596226	-495.837689	981.300361	1209.787608	-381.24036	1001.489971	1151.043753	-413.454333	
4	0.8	906.001797	1039.692286	-388.517028	897.0648179999999	1031.692425	-157.557981	747.054482	1078.651528	-326.559663	735.533221	1073.290695	-229.325929	853.6404219999999	864.7470530000001	-100.833331	920.276027	615.147747	-163.198981	834.40783	847.802716	-447.728843	859.468973	732.300376	-422.108863	763.500454	635.278183	-416.185695	997.712886	396.061877	-239.485236	963.324065	334.480227	-175.662097	984.764684	275.281051	-246.298326	682.872678	421.577271	-345.532785	589.15189	417.887196	-409.496767	540.751339	327.12274	-343.415704	890.177485	97.861761	-253.585242	1094.60307	127.063448	-288.425353	1083.963401	95.371517	-197.060537	384.888293	332.635596	-331.976157	456.034886	139.410072	-307.462148	416.02989	136.236267	-388.993348	921.646487	1498.430063	-447.038029	824.873318	1503.320637	-77.279954	931.38838	1486.500145	-223.968887	821.331036	1547.595029	-284.85641	713.477403	1413.121946	-41.788929	659.98687	1433.91195	-90.72579399999999	639.881838	1364.558473	-29.499563	578.719189	1319.081443	-25.869147	567.89059	1306.010716	-107.894035	874.962315	1373.403974	-520.158951	806.128975	1334.385109	-535.1451980000001	872.091943	1286.810484	-544.763586	827.330292	1214.158829	-571.112107	762.411954	1215.750227	-510.689119	647.855321	1212.150939	-19.175083	718.254773	1117.593861	-61.3351	661.693585	1085.127782	-35.552324	927.061028	1179.752792	-495.059935	979.531171	1200.491896	-380.844903	998.335176	1141.704737	-413.739688	
